<svg width="77" height="17" viewBox="0 0 77 17" fill="none" xmlns="http://www.w3.org/2000/svg">
<path d="M9.01794 0.00167373C10.2217 -0.0213865 11.3816 0.193842 12.4977 0.647361C13.6137 1.10088 14.5744 1.71197 15.3795 2.48065C16.1927 3.24932 16.8384 4.16405 17.3167 5.22482C17.795 6.2779 18.0222 7.36942 17.9983 8.49937C18.0222 9.63701 17.795 10.7362 17.3167 11.797C16.8384 12.8501 16.1927 13.761 15.3795 14.5296C14.5744 15.2983 13.6137 15.9094 12.4977 16.3629C11.3816 16.8087 10.2217 17.0201 9.01794 16.9971C7.81418 17.0278 6.65028 16.8164 5.52624 16.3629C4.4022 15.9094 3.43362 15.2983 2.62048 14.5296C1.80735 13.7533 1.16162 12.8385 0.683307 11.7855C0.204992 10.7247 -0.0222075 9.62932 0.00170827 8.49937C-0.0222075 7.36942 0.204992 6.2779 0.683307 5.22482C1.16162 4.17173 1.80735 3.26085 2.62048 2.49218C3.43362 1.71582 4.4022 1.10088 5.52624 0.647361C6.65028 0.193842 7.81418 -0.0213865 9.01794 0.00167373ZM6.19588 13.3074C7.04888 13.7533 7.98956 13.9762 9.01794 13.9762C10.0463 13.9762 10.987 13.7533 11.84 13.3074C12.693 12.8616 13.3746 12.2198 13.8848 11.3819C14.395 10.5364 14.6501 9.57552 14.6501 8.49937C14.6501 6.87747 14.112 5.55535 13.0358 4.53301C11.9596 3.51067 10.6203 2.99951 9.01794 2.99951C7.41558 2.99951 6.0763 3.51067 5.0001 4.53301C3.92389 5.55535 3.38578 6.87747 3.38578 8.49937C3.38578 9.57552 3.64088 10.5364 4.15109 11.3819C4.66129 12.2198 5.34289 12.8616 6.19588 13.3074Z" fill="white"/>
<path d="M23.283 2.2643V17H20V0H25.6533L32.717 14.7476V0H36V17H30.3467L23.283 2.2643Z" fill="white"/>
<path d="M38 0H50.7632V3.03487H41.2796V6.73361H50.0291V9.76848H41.2796V13.9651H51V17H38V0Z" fill="white"/>
<path d="M56.5508 17L53 0H56.3516L59.2344 14.8187L62.2344 0H67.7539L70.7539 14.8187L73.6367 0H77L73.4609 17H68.0703L65 2.19317L61.9414 17H56.5508Z" fill="white"/>
</svg>
