<svg width="1840" height="290" viewBox="0 0 1840 290" fill="none" xmlns="http://www.w3.org/2000/svg">
<path d="M1510.33 286.141L1426.67 3.85938H1512.55L1551.34 177.529H1553.55L1599.54 3.85938H1667.13L1713.12 178.08H1715.34L1754.12 3.85938H1840L1756.34 286.141H1682.65L1634.44 128.46H1632.23L1584.03 286.141H1510.33Z" fill="#F4F4F4"/>
<path d="M1195.66 286.141V3.85938H1400.1V65.6084H1272.67V114.126H1389.58V175.875H1272.67V224.392H1399.55V286.141H1195.66Z" fill="#F4F4F4"/>
<path d="M1159.23 3.85938V286.141H1094.96L992.458 137.833H990.796V286.141H913.781V3.85938H979.16L1080 151.616H1082.22V3.85938H1159.23Z" fill="#F4F4F4"/>
<path d="M593.438 286.141V3.85938H797.886V65.6084H670.452V114.126H787.359V175.875H670.452V224.392H797.332V286.141H593.438Z" fill="#F4F4F4"/>
<path d="M557 3.85938V286.141H492.729L390.227 137.833H388.565V286.141H311.551V3.85938H376.93L477.769 151.616H479.985V3.85938H557Z" fill="#F4F4F4"/>
<path d="M275.922 145C275.922 176.426 269.781 202.936 257.5 224.529C245.218 246.031 228.642 262.342 207.773 273.46C186.903 284.487 163.633 290 137.961 290C112.105 290 88.742 284.441 67.8724 273.322C47.0951 262.112 30.5657 245.756 18.284 224.254C6.09466 202.66 0 176.242 0 145C0 113.574 6.09466 87.1103 18.284 65.6084C30.5657 44.0146 47.0951 27.7044 67.8724 16.6778C88.742 5.55925 112.105 0 137.961 0C163.633 0 186.903 5.55925 207.773 16.6778C228.642 27.7044 245.218 44.0146 257.5 65.6084C269.781 87.1103 275.922 113.574 275.922 145ZM196.691 145C196.691 128.093 194.429 113.85 189.904 102.272C185.472 90.602 178.869 81.7807 170.097 75.808C161.416 69.7433 150.704 66.711 137.961 66.711C125.218 66.711 114.46 69.7433 105.687 75.808C97.0068 81.7807 90.4042 90.602 85.8794 102.272C81.4469 113.85 79.2306 128.093 79.2306 145C79.2306 161.907 81.4469 176.196 85.8794 187.866C90.4042 199.444 97.0068 208.265 105.687 214.33C114.46 220.303 125.218 223.289 137.961 223.289C150.704 223.289 161.416 220.303 170.097 214.33C178.869 208.265 185.472 199.444 189.904 187.866C194.429 176.196 196.691 161.907 196.691 145Z" fill="#F4F4F4"/>
</svg>
